HIERARCHY
ROOT Hips
{
	OFFSET	0.00	0.00	0.00
	CHANNELS 6 Xposition Yposition Zposition Zrotation Xrotation Yrotation
	JOINT LeftUpLeg
	{
		OFFSET	 0.126116	-0.014019	-0.065224
		CHANNELS 3 Zrotation Xrotation Yrotation
		JOINT LeftLeg
		{
			OFFSET	 0.000000	 0.000000	 0.569914
			CHANNELS 3 Zrotation Xrotation Yrotation
			JOINT LeftFoot
			{
				OFFSET	 0.000000	 0.000000	 0.544423
				CHANNELS 3 Zrotation Xrotation Yrotation
				JOINT LeftToeBase
				{
					OFFSET	 0.000000	 0.000000	 0.207117
					CHANNELS 3 Zrotation Xrotation Yrotation
					End Site
					{
						OFFSET	 0.000000	 0.000000	 0.207117
					}
				}
			}
		}
	}
	JOINT RightUpLeg
	{
		OFFSET	-0.124023	-0.008373	-0.065224
		CHANNELS 3 Zrotation Xrotation Yrotation
		JOINT RightLeg
		{
			OFFSET	 0.000000	 0.000000	 0.570047
			CHANNELS 3 Zrotation Xrotation Yrotation
			JOINT RightFoot
			{
				OFFSET	 0.000000	 0.000000	 0.544354
				CHANNELS 3 Zrotation Xrotation Yrotation
				JOINT RightToeBase
				{
					OFFSET	 0.000000	 0.000000	 0.207540
					CHANNELS 3 Zrotation Xrotation Yrotation
					End Site
					{
						OFFSET	 0.000000	 0.000000	 0.207540
					}
				}
			}
		}
	}
	JOINT Spine
	{
		OFFSET	 0.000184	-0.007763	 0.117403
		CHANNELS 3 Zrotation Xrotation Yrotation
		JOINT Spine1
		{
			OFFSET	 0.000000	 0.000000	 0.137269
			CHANNELS 3 Zrotation Xrotation Yrotation
			JOINT Spine2
			{
				OFFSET	 0.000000	 0.000000	 0.156879
				CHANNELS 3 Zrotation Xrotation Yrotation
				JOINT LeftShoulder
				{
					OFFSET	 0.080501	-0.002496	 0.160144
					CHANNELS 3 Zrotation Xrotation Yrotation
					JOINT LeftArm
					{
						OFFSET	 0.000000	 0.000000	 0.164363
						CHANNELS 3 Zrotation Xrotation Yrotation
						JOINT LeftForeArm
						{
							OFFSET	 0.000000	 0.000000	 0.364576
							CHANNELS 3 Zrotation Xrotation Yrotation
							JOINT LeftHand
							{
								OFFSET	 0.000000	 0.000000	 0.360812
								CHANNELS 3 Zrotation Xrotation Yrotation
								JOINT LeftHandIndex1
								{
									OFFSET	 0.000000	 0.000000	 0.086006
									CHANNELS 3 Zrotation Xrotation Yrotation
									JOINT LeftHandIndex2
									{
										OFFSET	 0.000000	 0.000000	 0.047236
										CHANNELS 3 Zrotation Xrotation Yrotation
										JOINT LeftHandIndex3
										{
											OFFSET	-0.004284	-0.000551	 0.038166
											CHANNELS 3 Zrotation Xrotation Yrotation
											End Site
											{
												OFFSET	-0.004284	-0.000551	 0.038166
											}
										}
									}
								}
							}
						}
					}
				}
				JOINT Neck
				{
					OFFSET	 0.000000	 0.000000	 0.176489
					CHANNELS 3 Zrotation Xrotation Yrotation
					JOINT Head
					{
						OFFSET	 0.000000	-0.001747	 0.077940
						CHANNELS 3 Zrotation Xrotation Yrotation
						End Site
						{
							OFFSET	 0.000000	-0.001747	 0.077940
						}
					}
				}
				JOINT RightShoulder
				{
					OFFSET	-0.080363	 0.000306	 0.159706
					CHANNELS 3 Zrotation Xrotation Yrotation
					JOINT RightArm
					{
						OFFSET	 0.000000	 0.000000	 0.164196
						CHANNELS 3 Zrotation Xrotation Yrotation
						JOINT RightForeArm
						{
							OFFSET	 0.000000	 0.000000	 0.365611
							CHANNELS 3 Zrotation Xrotation Yrotation
							JOINT RightHand
							{
								OFFSET	 0.000000	 0.000000	 0.360648
								CHANNELS 3 Zrotation Xrotation Yrotation
								JOINT RightHandIndex1
								{
									OFFSET	 0.000000	 0.000000	 0.069977
									CHANNELS 3 Zrotation Xrotation Yrotation
									JOINT RightHandIndex2
									{
										OFFSET	 0.000000	 0.000000	 0.052305
										CHANNELS 3 Zrotation Xrotation Yrotation
										JOINT RightHandIndex3
										{
											OFFSET	 0.009002	-0.000782	 0.042196
											CHANNELS 3 Zrotation Xrotation Yrotation
											End Site
											{
												OFFSET	 0.009002	-0.000782	 0.042196
											}
										}
									}
								}
							}
						}
					}
				}
			}
		}
	}
}
MOTION
Frames:    12
Frame Time: 0.03333334
-0.057944	-2.215132	 1.161484	 4.487987	-1.667768	-3.678474	 0.892111	-17.825120	-170.524200	 0.660861	-49.729380	 0.200363	 84.859390	 82.636620	-88.920430	-2.370686	 31.398480	-0.065027	-2.189977	-34.506380	-174.242200	 13.301560	-60.746970	 12.325070	 19.750270	 76.201800	-15.833840	 2.358243	 33.107110	 0.105716	 1.139516	 8.858918	 0.849729	 1.851372	 3.324252	 3.330417	-9.149343	-2.783443	-4.283323	-93.837590	 58.920500	 175.608500	 23.965170	 44.499120	-24.446620	-1.036615	-2.098635	-18.329120	 0.946243	-4.563196	-6.488799	-4.869300	 19.243530	-2.786477	-3.888009	 21.389720	 2.209344	-4.808252	 5.545583	 0.146965	-0.105559	-5.039738	 0.169027	-11.134030	 1.609173	 2.102256	 89.810590	 61.609260	-179.932100	-19.301100	 50.427220	 8.848627	-1.373528	-2.728825	 14.110880	-4.932943	 9.771107	 0.695093	 6.299953	 25.521870	-0.561884	 1.795338	 45.419190	-6.912583	 0.426555	 24.711930	 3.619119
-0.058505	-2.225976	 1.161507	 5.066307	-1.393036	-3.674421	 0.243331	-17.540000	-170.615800	 1.077556	-49.566000	 0.551728	 85.880420	 82.676450	-90.245000	-2.369657	 31.571460	-0.068936	-3.462662	-35.599980	-174.235400	 13.535930	-59.399330	 12.369190	 29.539920	 79.495260	-26.357060	 2.358832	 33.020740	 0.103707	 0.781790	 8.725225	 0.760971	 1.892626	 3.125189	 3.451344	-9.382681	-2.753236	-4.348489	-93.944630	 59.006060	 175.369500	 24.161980	 43.821990	-24.737290	-1.613175	-2.025075	-19.396640	 1.245750	-4.698267	-7.431816	-4.869037	 19.248880	-2.786527	-3.883720	 21.444690	 2.204986	-4.808265	 5.545358	 0.146975	-0.073505	-5.077977	 0.185367	-11.255800	 1.576257	 1.949317	 89.776940	 61.652030	 179.987800	-18.989500	 50.668560	 8.066853	-1.545717	-2.770875	 14.096800	-4.948061	 10.126760	 0.570075	 6.293211	 24.788250	-0.538344	 1.897146	 44.606380	-7.003492	 0.548180	 24.180000	 3.557183
-0.058955	-2.236056	 1.161398	 5.497653	-1.029006	-3.695782	-0.205619	-17.368040	-170.664100	 1.300450	-49.416120	 0.719785	 86.762470	 82.733260	-91.264330	-2.368914	 31.695320	-0.071747	-4.618901	-36.736340	-174.267800	 13.914940	-58.023870	 12.522670	 41.454400	 81.615570	-38.969050	 2.358971	 33.000740	 0.103237	 0.548347	 8.483835	 0.678075	 1.908564	 2.985514	 3.598786	-9.552110	-2.753383	-4.425180	-94.048970	 59.017850	 175.145400	 24.116560	 43.196520	-24.784620	-1.844358	-2.064517	-20.512520	 1.606640	-4.900331	-7.857522	-4.866105	 19.328450	-2.792652	-3.877993	 21.518040	 2.199166	-4.806027	 5.571748	 0.145437	-0.051024	-5.096172	 0.214027	-11.347050	 1.555562	 1.865172	 89.738030	 61.699300	 179.894700	-18.726290	 50.882340	 7.359326	-1.837527	-2.846601	 14.094830	-5.076188	 10.415250	 0.424550	 6.283157	 24.037800	-0.544801	 1.986317	 43.872490	-7.082771	 0.700803	 23.505290	 3.480771
-0.059594	-2.249583	 1.161053	 6.018355	-0.555576	-3.728252	-0.757916	-17.123580	-170.736900	 1.539898	-49.229870	 0.899152	 88.286070	 82.830980	-92.918500	-2.368021	 31.842210	-0.075082	-6.059685	-38.171940	-174.384700	 14.192830	-56.092020	 12.495700	 68.076130	 83.113940	-66.566810	 2.359054	 32.987010	 0.102919	 0.247283	 8.161077	 0.577296	 1.908630	 2.834706	 3.780748	-9.715615	-2.767743	-4.509743	-94.179290	 59.020290	 174.866900	 23.947140	 42.349930	-24.805510	-2.059037	-2.139796	-21.979410	 2.042267	-5.157211	-8.304859	-4.861950	 19.440840	-2.801395	-3.870541	 21.613120	 2.191588	-4.802844	 5.609336	 0.143233	-0.024453	-5.115541	 0.252075	-11.417890	 1.537679	 1.774727	 89.688440	 61.759420	 179.775800	-18.405380	 51.151340	 6.463187	-2.224784	-2.944201	 14.077990	-5.254680	 10.765770	 0.237687	 6.269816	 23.094100	-0.558107	 2.093085	 42.965760	-7.177241	 0.895082	 22.634820	 3.385658
-0.059922	-2.264145	 1.160436	 6.283823	-0.113151	-3.913623	-0.996927	-16.690550	-170.649800	 1.694334	-48.932620	 1.011567	 92.091400	 82.887650	-96.828350	-2.366654	 32.063820	-0.080128	-6.598555	-39.540660	-174.231900	 14.330760	-53.969890	 12.299970	 81.078190	 82.545990	-80.586740	 2.360319	 32.799360	 0.098573	 0.102213	 7.812223	 0.654661	 1.915813	 2.853425	 3.887912	-9.801456	-2.780035	-4.554907	-94.288040	 58.980550	 174.641000	 23.591170	 41.407050	-24.862240	-2.535516	-2.097856	-23.514810	 2.058153	-5.554581	-8.059001	-4.853311	 19.643960	-2.811209	-3.859680	 21.751260	 2.180558	-4.796183	 5.687794	 0.138635	-0.012887	-5.153023	 0.287488	-11.463730	 1.550981	 1.753739	 89.615580	 61.848890	 179.600000	-18.027740	 51.421970	 5.682195	-2.872539	-3.090010	 13.973260	-5.527984	 11.162560	-0.272254	 6.252004	 22.033330	-0.592841	 2.187763	 42.135010	-7.260577	 1.128064	 21.573930	 3.274857
-0.060213	-2.277745	 1.159632	 6.491375	 0.268953	-4.079834	-1.188808	-16.257510	-170.578400	 1.820092	-48.669640	 1.101973	 96.035180	 82.909360	-100.861200	-2.365404	 32.262540	-0.084668	-6.934029	-40.674850	-174.095900	 14.308090	-51.896370	 11.959630	 87.366720	 81.678410	-87.719030	 2.361510	 32.620870	 0.094442	-0.023420	 7.562694	 0.724747	 1.913252	 2.715031	 3.952847	-9.827206	-2.554394	-4.528813	-94.380250	 58.942410	 174.450300	 23.153120	 40.467540	-25.002840	-2.958050	-2.036824	-24.860450	 2.022954	-5.906870	-7.779805	-4.845384	 19.828150	-2.819847	-3.849938	 21.874810	 2.170666	-4.790095	 5.759473	 0.134420	-0.004236	-5.187117	 0.317947	-11.480820	 1.688993	 1.768480	 89.550610	 61.929150	 179.442400	-17.687450	 51.644660	 5.133998	-3.462864	-3.209634	 13.829500	-5.766864	 11.510600	-0.745272	 6.235715	 21.104290	-0.624934	 2.266686	 41.422810	-7.329718	 1.330397	 20.637690	 3.181603
-0.060572	-2.294904	 1.158325	 6.578078	 0.497620	-4.249421	-1.321693	-15.417570	-170.526500	 1.895887	-48.339980	 1.153024	 98.670140	 82.927230	-103.541000	-2.361742	 32.825560	-0.097626	-6.383960	-41.592740	-173.710400	 13.664730	-49.358840	 11.042350	 107.129700	 79.612040	-108.064600	 2.356806	 33.315120	 0.110561	-0.185161	 7.352229	 0.838996	 1.912449	 2.822212	 3.910795	-9.773472	-2.364935	-4.432995	-94.438350	 58.900090	 174.333400	 22.324260	 39.440460	-25.188570	-3.348018	-1.978802	-26.301220	 1.818533	-6.013826	-7.482038	-4.834211	 20.050750	-2.821768	-3.835133	 22.061830	 2.155620	-4.778883	 5.891118	 0.126660	 0.011157	-5.238554	 0.332887	-11.423610	 1.836889	 1.761719	 89.490590	 61.988350	 179.296200	-17.157090	 51.880870	 4.421592	-4.245666	-3.372251	 13.669820	-5.934847	 11.760680	-1.543591	 6.213452	 19.933140	-0.672536	 2.418972	 39.994910	-7.462234	 1.583772	 19.446030	 3.068819
-0.061069	-2.313779	 1.156598	 6.658090	 0.701252	-4.416620	-1.472681	-14.445390	-170.494500	 1.972796	-47.978980	 1.203700	 101.431200	 82.942700	-106.343400	-2.357328	 33.470680	-0.112620	-5.616312	-42.375950	-173.230700	 12.932060	-46.492270	 10.019070	 118.941500	 76.721370	-120.284300	 2.350987	 34.123840	 0.129587	-0.395140	 7.161345	 0.959952	 1.892712	 2.941415	 3.844488	-9.666212	-2.183252	-4.312180	-94.492070	 58.860330	 174.225700	 21.400000	 38.368180	-25.490700	-3.703969	-1.903840	-27.572460	 1.592266	-6.119246	-7.203399	-4.823763	 20.273740	-2.828036	-3.819567	 22.257420	 2.139806	-4.766736	 6.033510	 0.118241	 0.028663	-5.292293	 0.345897	-11.311370	 1.993217	 1.750954	 89.431700	 62.041030	 179.152600	-16.587640	 52.107960	 3.660884	-5.060583	-3.527682	 13.466230	-6.072213	 11.985540	-2.381069	 6.190006	 18.724360	-0.719056	 2.573326	 38.472170	-7.595254	 1.840872	 18.215300	 2.959026
-0.061860	-2.333868	 1.154562	 6.820694	 0.713727	-4.542289	-1.744616	-13.205470	-170.528000	 2.122264	-47.575470	 1.306406	 100.791300	 83.046840	-105.760800	-2.347405	 34.810570	-0.144326	-5.324885	-42.862530	-172.911600	 12.807820	-43.420410	 9.416893	 114.208900	 76.136310	-116.221800	 2.342515	 35.215590	 0.155720	-0.802422	 7.310019	 1.031804	 1.846796	 2.794303	 3.855070	-9.492243	-1.981374	-4.222723	-94.521720	 58.881710	 174.159200	 20.311090	 37.520180	-25.840930	-3.744897	-1.955099	-28.472790	 1.438052	-6.625998	-7.373311	-4.834371	 20.395660	-2.924926	-3.803596	 22.457090	 2.123585	-4.749575	 6.234163	 0.106323	 0.068929	-5.346896	 0.351111	-11.106320	 2.205823	 1.643779	 89.391720	 62.006060	 179.057000	-15.902830	 52.258430	 2.617224	-5.742787	-3.680349	 13.387930	-6.012658	 11.871560	-3.141330	 6.175450	 17.482870	-0.708075	 2.730642	 36.837130	-7.729358	 2.098240	 16.962150	 2.853983
-0.062920	-2.354806	 1.152222	 6.976326	 0.717883	-4.622205	-2.050736	-11.896100	-170.625700	 2.291326	-47.138950	 1.421254	 99.333740	 83.195940	-104.357700	-2.335044	 36.305910	-0.180690	-5.070200	-43.248610	-172.679500	 12.620100	-40.376690	 8.758552	 108.246400	 75.910550	-110.742300	 2.335229	 36.087510	 0.177000	-1.251071	 7.440559	 1.084179	 1.781371	 2.656579	 3.825286	-9.277831	-1.787855	-4.109651	-94.544360	 58.922430	 174.104400	 19.267840	 36.723090	-26.323370	-3.775382	-1.985881	-29.056470	 1.263953	-7.147472	-7.565755	-4.845632	 20.504610	-3.022806	-3.788358	 22.646600	 2.108110	-4.731901	 6.440297	 0.094004	 0.108221	-5.399055	 0.349628	-10.855550	 2.414735	 1.552535	 89.358250	 61.953340	 178.978200	-15.243880	 52.353990	 1.665747	-6.415304	-3.779246	 13.140980	-5.949144	 11.739950	-3.861348	 6.164987	 16.273660	-0.679695	 2.867729	 35.339670	-7.844901	 2.343806	 15.747310	 2.758401
-0.064791	-2.377016	 1.149390	 7.115540	 0.676216	-4.473475	-2.483976	-10.499240	-170.994300	 2.613688	-46.782880	 1.648113	 91.251810	 83.464420	-96.356290	-2.310476	 38.864490	-0.245597	-4.861864	-43.604310	-172.758900	 11.976410	-37.670190	 7.863132	 90.731770	 77.205510	-93.093680	 2.337139	 35.862730	 0.171490	-1.790644	 7.510715	 1.004406	 1.715569	 2.647372	 3.670983	-9.022610	-1.598699	-3.952019	-94.531550	 59.075850	 174.106200	 18.250150	 36.087270	-26.972450	-3.810385	-1.991607	-29.367150	 0.968859	-7.798591	-7.909827	-4.863002	 20.556720	-3.139045	-3.775495	 22.805730	 2.095056	-4.709142	 6.704836	 0.078099	 0.147191	-5.444922	 0.310849	-10.531880	 2.638886	 1.516467	 89.356980	 61.794950	 178.981200	-14.697260	 52.310350	 0.764542	-6.990412	-3.860975	 12.934280	-5.926558	 11.473160	-4.457476	 6.175627	 15.078310	-0.549364	 2.950574	 34.400440	-7.914076	 2.576227	 14.580830	 2.672227
-0.066961	-2.399441	 1.145775	 7.253438	 0.607342	-4.272820	-2.875632	-9.053449	-171.433200	 2.808883	-46.495620	 1.782023	 81.902600	 83.635060	-86.968920	-2.277948	 41.673210	-0.321429	-4.549759	-44.369660	-172.830400	 11.193440	-35.779520	 7.054854	 71.351580	 77.406810	-73.267670	 2.338872	 35.658350	 0.166487	-2.345998	 7.576900	 0.873782	 1.639288	 2.708219	 3.523963	-8.739732	-1.446256	-3.805676	-94.514920	 59.214890	 174.118400	 17.325500	 35.498960	-27.520100	-3.870166	-2.002333	-29.920700	 0.685304	-8.351617	-8.194722	-4.878409	 20.609430	-3.244825	-3.764092	 22.946360	 2.083473	-4.685703	 6.976173	 0.061667	 0.186029	-5.481159	 0.276210	-10.176980	 2.856473	 1.523177	 89.355860	 61.644910	 178.983900	-14.183190	 52.237120	-0.153853	-7.540597	-3.969543	 12.842570	-5.928091	 11.210190	-4.992839	 6.193363	 13.920830	-0.400493	 3.026396	 33.517080	-7.976948	 2.794650	 13.470410	 2.595143
